<svg width="412.236" height="26.497" viewBox="0 0 412.236 26.497" xmlns="http://www.w3.org/2000/svg"><g id="svgGroup" stroke-linecap="round" fill-rule="evenodd" font-size="9pt" stroke="#000" stroke-width="0.25mm" fill="#000" style="stroke:#000;stroke-width:0.25mm;fill:#000"><path d="M 97.02 7.92 L 97.02 22.176 Q 97.02 23.544 97.236 24.156 A 1.397 1.397 0 0 0 97.51 24.629 A 1.303 1.303 0 0 0 98.046 24.984 Q 98.64 25.2 99.936 25.272 L 99.936 25.992 Q 98.28 25.884 95.364 25.884 Q 92.296 25.884 90.783 25.99 A 21.359 21.359 0 0 0 90.756 25.992 L 90.756 25.272 Q 91.78 25.215 92.366 25.069 A 2.855 2.855 0 0 0 92.646 24.984 A 1.28 1.28 0 0 0 93.412 24.267 A 1.638 1.638 0 0 0 93.456 24.156 A 2.753 2.753 0 0 0 93.56 23.754 Q 93.644 23.311 93.665 22.651 A 14.829 14.829 0 0 0 93.672 22.176 L 93.672 6.372 L 84.996 26.172 L 84.42 26.172 L 76.068 6.408 L 76.068 21.816 Q 76.068 22.968 76.226 23.635 A 2.868 2.868 0 0 0 76.302 23.904 A 1.616 1.616 0 0 0 77.157 24.865 A 2.074 2.074 0 0 0 77.22 24.894 A 3.037 3.037 0 0 0 77.693 25.055 Q 78.332 25.221 79.344 25.272 L 79.344 25.992 A 22.94 22.94 0 0 0 78.629 25.945 Q 77.454 25.884 75.672 25.884 Q 73.892 25.884 72.772 25.957 A 17.844 17.844 0 0 0 72.324 25.992 L 72.324 25.272 Q 73.584 25.2 74.196 24.894 A 1.577 1.577 0 0 0 74.996 23.972 A 2.109 2.109 0 0 0 75.024 23.886 A 3.748 3.748 0 0 0 75.133 23.411 Q 75.22 22.895 75.237 22.162 A 15.728 15.728 0 0 0 75.24 21.816 L 75.24 7.92 Q 75.24 6.552 75.024 5.94 A 1.397 1.397 0 0 0 74.751 5.467 A 1.303 1.303 0 0 0 74.214 5.112 Q 73.62 4.896 72.324 4.824 L 72.324 4.104 A 19.363 19.363 0 0 0 72.979 4.151 Q 74.052 4.212 75.672 4.212 A 47.374 47.374 0 0 0 77.108 4.191 Q 77.764 4.171 78.35 4.132 A 27.164 27.164 0 0 0 78.732 4.104 L 85.968 21.636 L 93.672 4.212 L 95.364 4.212 A 133.196 133.196 0 0 0 96.743 4.205 Q 98.237 4.19 99.315 4.139 A 35.151 35.151 0 0 0 99.936 4.104 L 99.936 4.824 Q 98.913 4.881 98.327 5.028 A 2.855 2.855 0 0 0 98.046 5.112 A 1.28 1.28 0 0 0 97.28 5.829 A 1.638 1.638 0 0 0 97.236 5.94 A 2.753 2.753 0 0 0 97.132 6.343 Q 97.049 6.785 97.027 7.445 A 14.829 14.829 0 0 0 97.02 7.92 Z M 47.88 4.104 L 47.88 4.824 Q 46.857 4.881 46.271 5.028 A 2.855 2.855 0 0 0 45.99 5.112 A 1.28 1.28 0 0 0 45.224 5.829 A 1.638 1.638 0 0 0 45.18 5.94 A 2.753 2.753 0 0 0 45.076 6.343 Q 44.993 6.785 44.971 7.445 A 14.829 14.829 0 0 0 44.964 7.92 L 44.964 22.176 Q 44.964 23.544 45.18 24.156 A 1.397 1.397 0 0 0 45.454 24.629 A 1.303 1.303 0 0 0 45.99 24.984 Q 46.584 25.2 47.88 25.272 L 47.88 25.992 Q 46.368 25.884 43.272 25.884 Q 40.898 25.884 39.332 25.957 A 37.413 37.413 0 0 0 38.7 25.992 L 38.7 25.272 Q 39.724 25.215 40.31 25.069 A 2.855 2.855 0 0 0 40.59 24.984 A 1.28 1.28 0 0 0 41.356 24.267 A 1.638 1.638 0 0 0 41.4 24.156 A 2.753 2.753 0 0 0 41.504 23.754 Q 41.588 23.311 41.609 22.651 A 14.829 14.829 0 0 0 41.616 22.176 L 41.616 15.012 L 30.636 15.012 L 30.636 22.176 Q 30.636 23.544 30.852 24.156 A 1.397 1.397 0 0 0 31.126 24.629 A 1.303 1.303 0 0 0 31.662 24.984 Q 32.256 25.2 33.552 25.272 L 33.552 25.992 Q 31.896 25.884 28.98 25.884 Q 25.912 25.884 24.399 25.99 A 21.359 21.359 0 0 0 24.372 25.992 L 24.372 25.272 Q 25.396 25.215 25.982 25.069 A 2.855 2.855 0 0 0 26.262 24.984 A 1.28 1.28 0 0 0 27.028 24.267 A 1.638 1.638 0 0 0 27.072 24.156 A 2.753 2.753 0 0 0 27.176 23.754 Q 27.26 23.311 27.281 22.651 A 14.829 14.829 0 0 0 27.288 22.176 L 27.288 7.92 Q 27.288 6.552 27.072 5.94 A 1.397 1.397 0 0 0 26.799 5.467 A 1.303 1.303 0 0 0 26.262 5.112 Q 25.668 4.896 24.372 4.824 L 24.372 4.104 A 29.948 29.948 0 0 0 25.227 4.151 Q 26.658 4.212 28.98 4.212 A 130.949 130.949 0 0 0 30.346 4.205 Q 31.829 4.19 32.921 4.139 A 37.413 37.413 0 0 0 33.552 4.104 L 33.552 4.824 Q 32.529 4.881 31.943 5.028 A 2.855 2.855 0 0 0 31.662 5.112 A 1.28 1.28 0 0 0 30.896 5.829 A 1.638 1.638 0 0 0 30.852 5.94 A 2.753 2.753 0 0 0 30.748 6.343 Q 30.665 6.785 30.643 7.445 A 14.829 14.829 0 0 0 30.636 7.92 L 30.636 14.292 L 41.616 14.292 L 41.616 7.92 Q 41.616 6.552 41.4 5.94 A 1.397 1.397 0 0 0 41.127 5.467 A 1.303 1.303 0 0 0 40.59 5.112 Q 39.996 4.896 38.7 4.824 L 38.7 4.104 A 37.962 37.962 0 0 0 39.607 4.151 Q 41.085 4.212 43.272 4.212 A 145.411 145.411 0 0 0 44.721 4.205 Q 46.722 4.185 47.853 4.106 A 21.359 21.359 0 0 0 47.88 4.104 Z M 137.052 4.104 L 137.052 4.824 Q 135.792 4.896 135.18 5.202 A 1.577 1.577 0 0 0 134.381 6.124 A 2.109 2.109 0 0 0 134.352 6.21 A 3.748 3.748 0 0 0 134.243 6.686 Q 134.156 7.201 134.14 7.934 A 15.728 15.728 0 0 0 134.136 8.28 L 134.136 26.172 L 133.308 26.172 L 118.908 6.228 L 118.908 21.816 Q 118.908 22.968 119.066 23.635 A 2.868 2.868 0 0 0 119.142 23.904 A 1.616 1.616 0 0 0 119.997 24.865 A 2.074 2.074 0 0 0 120.06 24.894 A 3.037 3.037 0 0 0 120.533 25.055 Q 121.172 25.221 122.184 25.272 L 122.184 25.992 A 22.94 22.94 0 0 0 121.469 25.945 Q 120.294 25.884 118.512 25.884 Q 116.732 25.884 115.612 25.957 A 17.844 17.844 0 0 0 115.164 25.992 L 115.164 25.272 Q 116.424 25.2 117.036 24.894 A 1.577 1.577 0 0 0 117.836 23.972 A 2.109 2.109 0 0 0 117.864 23.886 A 3.748 3.748 0 0 0 117.973 23.411 Q 118.06 22.895 118.077 22.162 A 15.728 15.728 0 0 0 118.08 21.816 L 118.08 7.92 Q 118.08 6.552 117.864 5.94 A 1.397 1.397 0 0 0 117.591 5.467 A 1.303 1.303 0 0 0 117.054 5.112 Q 116.46 4.896 115.164 4.824 L 115.164 4.104 A 19.363 19.363 0 0 0 115.819 4.151 Q 116.892 4.212 118.512 4.212 A 58.918 58.918 0 0 0 119.889 4.197 Q 120.969 4.172 121.824 4.104 L 133.308 20.088 L 133.308 8.28 Q 133.308 7.128 133.151 6.461 A 2.868 2.868 0 0 0 133.074 6.192 A 1.616 1.616 0 0 0 132.219 5.232 A 2.074 2.074 0 0 0 132.156 5.202 A 3.037 3.037 0 0 0 131.683 5.041 Q 131.045 4.875 130.032 4.824 L 130.032 4.104 A 22.94 22.94 0 0 0 130.748 4.151 Q 131.922 4.212 133.704 4.212 A 72.564 72.564 0 0 0 134.723 4.205 Q 135.824 4.19 136.605 4.139 A 17.844 17.844 0 0 0 137.052 4.104 Z M 210.06 4.104 L 210.06 4.824 Q 208.8 4.896 208.188 5.202 A 1.577 1.577 0 0 0 207.389 6.124 A 2.109 2.109 0 0 0 207.36 6.21 A 3.748 3.748 0 0 0 207.251 6.686 Q 207.164 7.201 207.148 7.934 A 15.728 15.728 0 0 0 207.144 8.28 L 207.144 26.172 L 206.316 26.172 L 191.916 6.228 L 191.916 21.816 Q 191.916 22.968 192.074 23.635 A 2.868 2.868 0 0 0 192.15 23.904 A 1.616 1.616 0 0 0 193.005 24.865 A 2.074 2.074 0 0 0 193.068 24.894 A 3.037 3.037 0 0 0 193.541 25.055 Q 194.18 25.221 195.192 25.272 L 195.192 25.992 A 22.94 22.94 0 0 0 194.477 25.945 Q 193.302 25.884 191.52 25.884 Q 189.74 25.884 188.62 25.957 A 17.844 17.844 0 0 0 188.172 25.992 L 188.172 25.272 Q 189.432 25.2 190.044 24.894 A 1.577 1.577 0 0 0 190.844 23.972 A 2.109 2.109 0 0 0 190.872 23.886 A 3.748 3.748 0 0 0 190.981 23.411 Q 191.068 22.895 191.085 22.162 A 15.728 15.728 0 0 0 191.088 21.816 L 191.088 7.92 Q 191.088 6.552 190.872 5.94 A 1.397 1.397 0 0 0 190.599 5.467 A 1.303 1.303 0 0 0 190.062 5.112 Q 189.468 4.896 188.172 4.824 L 188.172 4.104 A 19.363 19.363 0 0 0 188.827 4.151 Q 189.9 4.212 191.52 4.212 A 58.918 58.918 0 0 0 192.897 4.197 Q 193.977 4.172 194.832 4.104 L 206.316 20.088 L 206.316 8.28 Q 206.316 7.128 206.159 6.461 A 2.868 2.868 0 0 0 206.082 6.192 A 1.616 1.616 0 0 0 205.227 5.232 A 2.074 2.074 0 0 0 205.164 5.202 A 3.037 3.037 0 0 0 204.691 5.041 Q 204.053 4.875 203.04 4.824 L 203.04 4.104 A 22.94 22.94 0 0 0 203.756 4.151 Q 204.93 4.212 206.712 4.212 A 72.564 72.564 0 0 0 207.731 4.205 Q 208.832 4.19 209.613 4.139 A 17.844 17.844 0 0 0 210.06 4.104 Z M 381.42 4.104 L 381.42 4.824 Q 380.16 4.896 379.548 5.202 A 1.577 1.577 0 0 0 378.749 6.124 A 2.109 2.109 0 0 0 378.72 6.21 A 3.748 3.748 0 0 0 378.611 6.686 Q 378.524 7.201 378.508 7.934 A 15.728 15.728 0 0 0 378.504 8.28 L 378.504 26.172 L 377.676 26.172 L 363.276 6.228 L 363.276 21.816 Q 363.276 22.968 363.434 23.635 A 2.868 2.868 0 0 0 363.51 23.904 A 1.616 1.616 0 0 0 364.365 24.865 A 2.074 2.074 0 0 0 364.428 24.894 A 3.037 3.037 0 0 0 364.901 25.055 Q 365.54 25.221 366.552 25.272 L 366.552 25.992 A 22.94 22.94 0 0 0 365.837 25.945 Q 364.662 25.884 362.88 25.884 Q 361.1 25.884 359.98 25.957 A 17.844 17.844 0 0 0 359.532 25.992 L 359.532 25.272 Q 360.792 25.2 361.404 24.894 A 1.577 1.577 0 0 0 362.204 23.972 A 2.109 2.109 0 0 0 362.232 23.886 A 3.748 3.748 0 0 0 362.341 23.411 Q 362.428 22.895 362.445 22.162 A 15.728 15.728 0 0 0 362.448 21.816 L 362.448 7.92 Q 362.448 6.552 362.232 5.94 A 1.397 1.397 0 0 0 361.959 5.467 A 1.303 1.303 0 0 0 361.422 5.112 Q 360.828 4.896 359.532 4.824 L 359.532 4.104 A 19.363 19.363 0 0 0 360.187 4.151 Q 361.26 4.212 362.88 4.212 A 58.918 58.918 0 0 0 364.257 4.197 Q 365.337 4.172 366.192 4.104 L 377.676 20.088 L 377.676 8.28 Q 377.676 7.128 377.519 6.461 A 2.868 2.868 0 0 0 377.442 6.192 A 1.616 1.616 0 0 0 376.587 5.232 A 2.074 2.074 0 0 0 376.524 5.202 A 3.037 3.037 0 0 0 376.051 5.041 Q 375.413 4.875 374.4 4.824 L 374.4 4.104 A 22.94 22.94 0 0 0 375.116 4.151 Q 376.29 4.212 378.072 4.212 A 72.564 72.564 0 0 0 379.091 4.205 Q 380.192 4.19 380.973 4.139 A 17.844 17.844 0 0 0 381.42 4.104 Z M 241.92 0.504 L 242.748 0.504 A 50.238 50.238 0 0 0 242.686 1.874 Q 242.604 4.306 242.604 8.784 L 241.776 8.784 Q 241.452 6.876 241.092 5.634 A 6.315 6.315 0 0 0 240.329 3.943 A 5.795 5.795 0 0 0 239.976 3.456 A 7.029 7.029 0 0 0 237.876 1.713 A 8.518 8.518 0 0 0 237.258 1.404 Q 235.584 0.648 233.748 0.648 Q 231.372 0.648 229.572 2.196 A 8.299 8.299 0 0 0 227.893 4.212 Q 227.336 5.133 226.917 6.275 A 14.72 14.72 0 0 0 226.8 6.606 Q 225.889 9.289 225.832 12.811 A 29.269 29.269 0 0 0 225.828 13.284 A 32.261 32.261 0 0 0 225.987 16.611 Q 226.402 20.598 227.898 22.77 A 6.7 6.7 0 0 0 232.27 25.576 A 10.695 10.695 0 0 0 234.396 25.776 Q 236.556 25.776 238.14 24.66 A 4.176 4.176 0 0 0 238.469 24.419 Q 238.803 24.145 238.953 23.879 A 1.117 1.117 0 0 0 238.986 23.814 Q 239.126 23.523 239.167 23.08 A 4.317 4.317 0 0 0 239.184 22.68 L 239.184 19.224 A 12.832 12.832 0 0 0 239.166 18.52 Q 239.127 17.815 239.005 17.352 A 2.466 2.466 0 0 0 238.896 17.028 A 1.614 1.614 0 0 0 237.977 16.125 A 2.048 2.048 0 0 0 237.888 16.092 Q 237.168 15.84 235.548 15.768 L 235.548 15.048 A 49.04 49.04 0 0 0 236.567 15.095 Q 238.221 15.156 240.624 15.156 A 92.434 92.434 0 0 0 241.776 15.149 Q 243.017 15.134 243.877 15.083 A 20.763 20.763 0 0 0 244.368 15.048 L 244.368 15.768 A 6.04 6.04 0 0 0 243.944 15.819 Q 243.537 15.884 243.281 15.997 A 1.276 1.276 0 0 0 243.162 16.056 Q 242.784 16.272 242.658 16.884 A 4.227 4.227 0 0 0 242.603 17.237 Q 242.556 17.641 242.54 18.237 A 24.023 24.023 0 0 0 242.532 18.864 L 242.532 25.992 L 241.812 25.992 Q 241.776 25.272 241.524 24.606 A 1.929 1.929 0 0 0 241.405 24.347 Q 241.23 24.034 240.99 23.962 A 0.518 0.518 0 0 0 240.84 23.94 A 0.919 0.919 0 0 0 240.509 24.003 A 1.129 1.129 0 0 0 240.408 24.048 A 1.796 1.796 0 0 0 240.289 24.115 Q 240.118 24.217 239.836 24.419 A 18.439 18.439 0 0 0 239.652 24.552 A 10.14 10.14 0 0 1 237.96 25.619 A 8.737 8.737 0 0 1 237.042 26.01 A 8.185 8.185 0 0 1 235.151 26.437 A 10.28 10.28 0 0 1 234.036 26.496 A 15.035 15.035 0 0 1 230.995 26.203 A 11.016 11.016 0 0 1 227.682 24.966 Q 225.036 23.436 223.632 20.556 A 13.329 13.329 0 0 1 222.537 17.181 Q 222.228 15.553 222.228 13.68 A 19.199 19.199 0 0 1 222.557 10.05 A 14.659 14.659 0 0 1 223.722 6.462 A 12.304 12.304 0 0 1 225.687 3.496 A 10.554 10.554 0 0 1 227.844 1.674 A 10.742 10.742 0 0 1 233.199 0.015 A 13.004 13.004 0 0 1 233.82 0 A 12.509 12.509 0 0 1 235.249 0.077 Q 236.436 0.214 237.312 0.594 A 13.173 13.173 0 0 1 238.557 1.221 Q 239.181 1.574 239.85 2.027 A 24.193 24.193 0 0 1 240.3 2.34 Q 240.637 2.599 240.862 2.672 A 0.52 0.52 0 0 0 241.02 2.7 Q 241.612 2.7 241.853 1.058 A 11.67 11.67 0 0 0 241.92 0.504 Z M 50.904 25.992 L 50.904 25.272 Q 51.928 25.215 52.514 25.069 A 2.855 2.855 0 0 0 52.794 24.984 A 1.28 1.28 0 0 0 53.56 24.267 A 1.638 1.638 0 0 0 53.604 24.156 A 2.753 2.753 0 0 0 53.708 23.754 Q 53.792 23.311 53.813 22.651 A 14.829 14.829 0 0 0 53.82 22.176 L 53.82 7.92 Q 53.82 6.552 53.604 5.94 A 1.397 1.397 0 0 0 53.331 5.467 A 1.303 1.303 0 0 0 52.794 5.112 Q 52.2 4.896 50.904 4.824 L 50.904 4.104 Q 54.324 4.212 60.984 4.212 A 374.968 374.968 0 0 0 63.322 4.205 Q 66.555 4.185 68.148 4.104 A 40.585 40.585 0 0 0 67.967 6.034 Q 67.896 7.074 67.896 7.992 A 29.898 29.898 0 0 0 67.907 8.813 Q 67.93 9.655 68.004 10.224 L 67.176 10.224 Q 66.972 7.826 66.28 6.604 A 3.262 3.262 0 0 0 65.934 6.102 Q 64.944 4.932 62.712 4.932 L 60.084 4.932 Q 59.061 4.932 58.475 5.056 A 2.567 2.567 0 0 0 58.194 5.13 A 1.223 1.223 0 0 0 57.438 5.807 A 1.594 1.594 0 0 0 57.384 5.94 A 2.753 2.753 0 0 0 57.28 6.343 Q 57.197 6.785 57.175 7.445 A 14.829 14.829 0 0 0 57.168 7.92 L 57.168 14.616 L 60.156 14.616 A 3.572 3.572 0 0 0 60.846 14.554 Q 61.244 14.475 61.552 14.299 A 1.842 1.842 0 0 0 61.92 14.022 A 3.486 3.486 0 0 0 62.427 13.411 A 2.759 2.759 0 0 0 62.748 12.726 A 9.539 9.539 0 0 0 62.902 12.16 Q 62.966 11.894 63.027 11.59 A 20.843 20.843 0 0 0 63.144 10.944 L 63.972 10.944 A 27.411 27.411 0 0 0 63.885 12.389 A 34.75 34.75 0 0 0 63.864 13.608 L 63.864 14.976 Q 63.864 16.051 63.991 17.843 A 101.958 101.958 0 0 0 64.08 19.008 L 63.252 19.008 Q 63.036 17.28 62.424 16.308 A 1.902 1.902 0 0 0 61.443 15.536 Q 60.907 15.336 60.156 15.336 L 57.168 15.336 L 57.168 22.176 Q 57.168 23.544 57.384 24.156 A 1.373 1.373 0 0 0 57.634 24.599 A 1.236 1.236 0 0 0 58.194 24.966 A 2.821 2.821 0 0 0 58.584 25.062 Q 59.008 25.138 59.635 25.157 A 14.568 14.568 0 0 0 60.084 25.164 L 62.712 25.164 A 9.121 9.121 0 0 0 63.812 25.102 Q 64.855 24.975 65.556 24.588 A 3.404 3.404 0 0 0 66.807 23.381 A 4.6 4.6 0 0 0 67.14 22.734 Q 67.656 21.513 67.876 19.356 A 24.867 24.867 0 0 0 67.896 19.152 L 68.724 19.152 A 14.256 14.256 0 0 0 68.667 19.823 Q 68.62 20.577 68.616 21.598 A 47.261 47.261 0 0 0 68.616 21.744 A 33.437 33.437 0 0 0 68.672 23.61 Q 68.727 24.59 68.836 25.679 A 56.57 56.57 0 0 0 68.868 25.992 Q 66.528 25.884 60.984 25.884 A 679.752 679.752 0 0 0 57.857 25.891 Q 53.469 25.911 50.904 25.992 Z M 19.692 0.504 L 20.52 0.504 A 50.238 50.238 0 0 0 20.458 1.874 Q 20.376 4.306 20.376 8.784 L 19.548 8.784 Q 19.152 6.444 18.828 5.418 Q 18.504 4.392 17.748 3.456 Q 16.668 2.052 14.994 1.35 A 9.158 9.158 0 0 0 11.738 0.654 A 10.563 10.563 0 0 0 11.376 0.648 Q 9.036 0.648 7.29 2.196 Q 5.708 3.599 4.761 6.081 A 15.1 15.1 0 0 0 4.572 6.606 A 17.376 17.376 0 0 0 3.851 9.663 Q 3.632 11.151 3.604 12.835 A 29.793 29.793 0 0 0 3.6 13.32 Q 3.6 16.662 4.357 19.194 A 13.829 13.829 0 0 0 4.644 20.052 Q 5.688 22.86 7.542 24.318 Q 9.396 25.776 11.736 25.776 Q 13.536 25.776 15.228 25.092 A 6.271 6.271 0 0 0 16.944 24.073 A 5.582 5.582 0 0 0 17.892 23.04 Q 18.612 22.032 18.936 20.88 A 11.496 11.496 0 0 0 19.116 20.135 Q 19.288 19.312 19.45 18.118 A 54.908 54.908 0 0 0 19.548 17.352 L 20.376 17.352 A 420.782 420.782 0 0 0 20.385 20.194 Q 20.409 23.734 20.498 25.58 A 39.4 39.4 0 0 0 20.52 25.992 L 19.692 25.992 Q 19.609 25.106 19.473 24.614 A 2.372 2.372 0 0 0 19.386 24.354 Q 19.284 24.104 19.139 23.982 A 0.471 0.471 0 0 0 18.828 23.868 Q 18.584 23.868 18.211 24.075 A 3.515 3.515 0 0 0 18.072 24.156 Q 16.506 25.27 15.074 25.862 A 11.028 11.028 0 0 1 14.976 25.902 A 7.688 7.688 0 0 1 13.458 26.328 Q 12.726 26.459 11.889 26.488 A 13.948 13.948 0 0 1 11.412 26.496 Q 7.992 26.496 5.418 24.948 Q 2.844 23.4 1.422 20.466 Q 0.043 17.619 0.002 13.705 A 22.99 22.99 0 0 1 0 13.464 Q 0 9.504 1.458 6.444 A 12.037 12.037 0 0 1 3.562 3.328 A 10.691 10.691 0 0 1 5.526 1.692 A 10.56 10.56 0 0 1 11.037 0.007 A 12.716 12.716 0 0 1 11.448 0 Q 13.284 0 14.652 0.442 A 6.924 6.924 0 0 1 15.12 0.612 A 11.886 11.886 0 0 1 17.257 1.752 A 14.173 14.173 0 0 1 18.072 2.34 A 2.28 2.28 0 0 0 18.275 2.489 Q 18.545 2.664 18.756 2.664 A 0.525 0.525 0 0 0 19.174 2.432 Q 19.547 1.955 19.692 0.504 Z M 316.44 4.104 L 316.44 4.824 Q 315.18 4.896 314.568 5.202 A 1.577 1.577 0 0 0 313.769 6.124 A 2.109 2.109 0 0 0 313.74 6.21 A 3.748 3.748 0 0 0 313.631 6.686 Q 313.544 7.201 313.528 7.934 A 15.728 15.728 0 0 0 313.524 8.28 L 313.524 16.236 Q 313.524 18.138 313.324 19.607 A 15.077 15.077 0 0 1 313.182 20.466 A 10.306 10.306 0 0 1 312.694 22.188 A 8.108 8.108 0 0 1 312.048 23.508 Q 311.184 24.876 309.546 25.686 A 7.804 7.804 0 0 1 307.02 26.425 A 9.823 9.823 0 0 1 305.82 26.496 A 13.947 13.947 0 0 1 303.671 26.341 Q 302.548 26.166 301.643 25.791 A 6.181 6.181 0 0 1 300.132 24.912 A 7.666 7.666 0 0 1 298.776 23.359 A 6.377 6.377 0 0 1 298.008 21.708 A 9.776 9.776 0 0 1 297.735 20.484 Q 297.518 19.153 297.477 17.244 A 42.629 42.629 0 0 1 297.468 16.344 L 297.468 7.92 Q 297.468 6.552 297.252 5.94 A 1.397 1.397 0 0 0 296.979 5.467 A 1.303 1.303 0 0 0 296.442 5.112 Q 295.848 4.896 294.552 4.824 L 294.552 4.104 A 29.948 29.948 0 0 0 295.407 4.151 Q 296.838 4.212 299.16 4.212 A 130.949 130.949 0 0 0 300.526 4.205 Q 302.009 4.19 303.101 4.139 A 37.413 37.413 0 0 0 303.732 4.104 L 303.732 4.824 Q 302.709 4.881 302.123 5.028 A 2.855 2.855 0 0 0 301.842 5.112 A 1.28 1.28 0 0 0 301.076 5.829 A 1.638 1.638 0 0 0 301.032 5.94 A 2.753 2.753 0 0 0 300.928 6.343 Q 300.845 6.785 300.823 7.445 A 14.829 14.829 0 0 0 300.816 7.92 L 300.816 16.956 Q 300.816 18.873 301.003 20.315 A 14.296 14.296 0 0 0 301.176 21.366 Q 301.536 23.112 302.706 24.174 A 3.718 3.718 0 0 0 304.044 24.936 Q 304.939 25.236 306.144 25.236 A 8.947 8.947 0 0 0 308.001 25.057 Q 309.114 24.82 309.935 24.272 A 4.502 4.502 0 0 0 311.22 22.968 A 8.025 8.025 0 0 0 312.176 20.828 Q 312.696 19.047 312.696 16.632 L 312.696 8.28 Q 312.696 6.725 312.247 5.953 A 1.716 1.716 0 0 0 311.994 5.616 Q 311.292 4.896 309.42 4.824 L 309.42 4.104 A 22.94 22.94 0 0 0 310.136 4.151 Q 311.31 4.212 313.092 4.212 A 72.564 72.564 0 0 0 314.111 4.205 Q 315.212 4.19 315.993 4.139 A 17.844 17.844 0 0 0 316.44 4.104 Z M 402.084 4.104 L 402.912 4.104 A 43.286 43.286 0 0 0 402.849 5.386 Q 402.777 7.378 402.769 10.83 A 376.831 376.831 0 0 0 402.768 11.664 L 401.94 11.664 Q 401.58 9.792 401.22 8.892 Q 400.86 7.992 400.14 7.056 A 6.994 6.994 0 0 0 398.365 5.386 A 6.582 6.582 0 0 0 397.728 5.022 Q 396.324 4.32 394.776 4.32 Q 392.652 4.32 391.086 5.616 Q 389.618 6.831 388.767 9.06 A 12.505 12.505 0 0 0 388.656 9.36 A 14.385 14.385 0 0 0 388.015 11.979 Q 387.82 13.254 387.796 14.7 A 24.764 24.764 0 0 0 387.792 15.12 A 20.091 20.091 0 0 0 387.95 17.706 Q 388.122 19.034 388.484 20.166 A 11.154 11.154 0 0 0 388.746 20.898 Q 389.647 23.159 391.158 24.392 A 6.392 6.392 0 0 0 391.338 24.534 Q 392.976 25.776 395.028 25.776 Q 396.612 25.776 398.07 25.074 Q 399.528 24.372 400.536 23.04 A 7.096 7.096 0 0 0 401.541 21.125 A 6.731 6.731 0 0 0 401.562 21.06 A 10.17 10.17 0 0 0 401.768 20.33 Q 401.993 19.416 402.192 18.072 L 403.02 18.072 Q 403.02 23.277 403.142 25.612 A 34.188 34.188 0 0 0 403.164 25.992 L 402.336 25.992 Q 402.249 25.089 402.091 24.575 A 2.505 2.505 0 0 0 402.012 24.354 A 1.464 1.464 0 0 0 401.903 24.138 Q 401.712 23.832 401.436 23.832 Q 401.148 23.832 400.716 24.156 Q 399.444 25.227 398.235 25.816 A 8.708 8.708 0 0 1 398.052 25.902 A 6.104 6.104 0 0 1 396.711 26.328 Q 395.879 26.496 394.884 26.496 Q 391.68 26.496 389.268 25.182 Q 386.856 23.868 385.524 21.33 A 11.259 11.259 0 0 1 384.447 18.162 A 15.655 15.655 0 0 1 384.192 15.264 Q 384.192 11.808 385.56 9.162 Q 386.928 6.516 389.376 5.058 A 10.427 10.427 0 0 1 394.156 3.623 A 12.658 12.658 0 0 1 394.92 3.6 A 8.716 8.716 0 0 1 396.264 3.698 Q 396.981 3.81 397.581 4.05 A 4.976 4.976 0 0 1 397.908 4.194 Q 399.01 4.729 400.2 5.716 A 16.993 16.993 0 0 1 400.464 5.94 A 2.28 2.28 0 0 0 400.667 6.089 Q 400.937 6.264 401.148 6.264 A 0.525 0.525 0 0 0 401.566 6.032 Q 401.939 5.555 402.084 4.104 Z M 159.66 11.304 L 158.832 11.304 A 29.348 29.348 0 0 0 158.682 9.913 Q 158.477 8.389 158.148 7.452 A 4.139 4.139 0 0 0 157.674 6.494 A 3.093 3.093 0 0 0 156.636 5.526 Q 155.613 4.944 153.726 4.932 A 12.552 12.552 0 0 0 153.648 4.932 L 151.344 4.932 L 151.344 21.816 A 12.832 12.832 0 0 0 151.362 22.52 Q 151.401 23.225 151.524 23.688 A 2.466 2.466 0 0 0 151.632 24.012 A 1.614 1.614 0 0 0 152.552 24.915 A 2.048 2.048 0 0 0 152.64 24.948 Q 153.36 25.2 154.98 25.272 L 154.98 25.992 Q 153.108 25.884 149.688 25.884 Q 146.154 25.884 144.424 25.988 A 27.593 27.593 0 0 0 144.36 25.992 L 144.36 25.272 Q 145.98 25.2 146.7 24.948 A 1.726 1.726 0 0 0 147.304 24.595 A 1.642 1.642 0 0 0 147.708 24.012 A 2.697 2.697 0 0 0 147.847 23.562 Q 147.958 23.07 147.987 22.34 A 13.612 13.612 0 0 0 147.996 21.816 L 147.996 4.932 L 145.692 4.932 A 10.25 10.25 0 0 0 144.591 4.987 Q 143.449 5.111 142.729 5.512 A 3.026 3.026 0 0 0 142.704 5.526 A 3.161 3.161 0 0 0 141.501 6.761 A 4.383 4.383 0 0 0 141.192 7.452 A 8.77 8.77 0 0 0 140.925 8.397 Q 140.695 9.404 140.552 10.827 A 33.923 33.923 0 0 0 140.508 11.304 L 139.68 11.304 A 20.865 20.865 0 0 0 139.742 10.436 Q 139.765 9.984 139.777 9.464 A 49.945 49.945 0 0 0 139.788 8.352 A 33.437 33.437 0 0 0 139.733 6.486 Q 139.678 5.506 139.569 4.417 A 56.57 56.57 0 0 0 139.536 4.104 A 111.29 111.29 0 0 0 141.291 4.151 Q 143.996 4.206 148.581 4.211 A 886.276 886.276 0 0 0 149.688 4.212 A 749.318 749.318 0 0 0 152.993 4.205 Q 157.563 4.185 159.804 4.104 Q 159.552 6.48 159.552 8.352 A 52.801 52.801 0 0 0 159.563 9.445 Q 159.583 10.405 159.64 11.088 A 14.009 14.009 0 0 0 159.66 11.304 Z M 267.84 24.012 L 268.344 24.48 A 5.741 5.741 0 0 1 267.574 25.374 A 4.58 4.58 0 0 1 266.778 25.974 A 3.672 3.672 0 0 1 265.542 26.423 A 4.944 4.944 0 0 1 264.672 26.496 A 5.015 5.015 0 0 1 263.269 26.314 Q 261.472 25.791 260.964 23.76 L 259.848 19.26 A 8.635 8.635 0 0 0 259.546 18.283 Q 259.081 17.062 258.354 16.56 A 3.274 3.274 0 0 0 257.478 16.143 Q 256.662 15.884 255.496 15.876 A 10.897 10.897 0 0 0 255.42 15.876 L 253.368 15.876 L 253.368 22.176 Q 253.368 23.544 253.584 24.156 A 1.397 1.397 0 0 0 253.858 24.629 A 1.303 1.303 0 0 0 254.394 24.984 Q 254.988 25.2 256.284 25.272 L 256.284 25.992 Q 254.628 25.884 251.712 25.884 Q 248.644 25.884 247.131 25.99 A 21.359 21.359 0 0 0 247.104 25.992 L 247.104 25.272 Q 248.128 25.215 248.714 25.069 A 2.855 2.855 0 0 0 248.994 24.984 A 1.28 1.28 0 0 0 249.76 24.267 A 1.638 1.638 0 0 0 249.804 24.156 A 2.753 2.753 0 0 0 249.908 23.754 Q 249.992 23.311 250.013 22.651 A 14.829 14.829 0 0 0 250.02 22.176 L 250.02 7.92 Q 250.02 6.552 249.804 5.94 A 1.397 1.397 0 0 0 249.531 5.467 A 1.303 1.303 0 0 0 248.994 5.112 Q 248.4 4.896 247.104 4.824 L 247.104 4.104 A 30.721 30.721 0 0 0 247.946 4.151 Q 249.336 4.212 251.496 4.212 L 255.168 4.176 Q 255.694 4.145 256.353 4.141 A 33.198 33.198 0 0 1 256.572 4.14 A 17.264 17.264 0 0 1 258.881 4.284 Q 261.265 4.607 262.746 5.652 Q 264.888 7.164 264.888 9.576 A 5.081 5.081 0 0 1 263.887 12.591 A 7.052 7.052 0 0 1 263.214 13.392 Q 261.548 15.112 257.759 15.584 A 19.517 19.517 0 0 1 257.724 15.588 Q 258.444 15.66 258.948 15.732 Q 260.856 16.02 261.972 16.884 A 3.73 3.73 0 0 1 262.901 17.966 Q 263.185 18.45 263.387 19.065 A 7.906 7.906 0 0 1 263.556 19.656 L 264.348 22.932 Q 264.576 23.927 264.837 24.462 A 2.313 2.313 0 0 0 264.978 24.714 Q 265.32 25.236 265.86 25.236 A 1.621 1.621 0 0 0 266.545 25.071 Q 267.06 24.832 267.626 24.245 A 7.171 7.171 0 0 0 267.84 24.012 Z M 327.528 17.136 L 325.116 17.136 L 325.116 22.176 Q 325.116 23.544 325.332 24.156 A 1.397 1.397 0 0 0 325.606 24.629 A 1.303 1.303 0 0 0 326.142 24.984 Q 326.736 25.2 328.032 25.272 L 328.032 25.992 Q 326.376 25.884 323.46 25.884 Q 320.392 25.884 318.879 25.99 A 21.359 21.359 0 0 0 318.852 25.992 L 318.852 25.272 Q 319.876 25.215 320.462 25.069 A 2.855 2.855 0 0 0 320.742 24.984 A 1.28 1.28 0 0 0 321.508 24.267 A 1.638 1.638 0 0 0 321.552 24.156 A 2.753 2.753 0 0 0 321.656 23.754 Q 321.74 23.311 321.761 22.651 A 14.829 14.829 0 0 0 321.768 22.176 L 321.768 7.92 Q 321.768 6.552 321.552 5.94 A 1.397 1.397 0 0 0 321.279 5.467 A 1.303 1.303 0 0 0 320.742 5.112 Q 320.148 4.896 318.852 4.824 L 318.852 4.104 A 30.721 30.721 0 0 0 319.694 4.151 Q 321.084 4.212 323.244 4.212 L 327.132 4.176 Q 327.771 4.142 328.566 4.14 A 40.605 40.605 0 0 1 328.68 4.14 A 14.545 14.545 0 0 1 330.912 4.3 Q 333.173 4.652 334.584 5.778 A 5.232 5.232 0 0 1 336.612 9.567 A 6.847 6.847 0 0 1 336.636 10.152 Q 336.636 11.88 335.79 13.464 A 5.505 5.505 0 0 1 334.474 15.065 Q 333.808 15.631 332.91 16.092 A 8.399 8.399 0 0 1 331.041 16.768 Q 330.136 16.987 329.067 17.075 A 18.607 18.607 0 0 1 327.528 17.136 Z M 356.508 0.504 L 356.508 1.224 Q 355.485 1.281 354.899 1.428 A 2.855 2.855 0 0 0 354.618 1.512 A 1.28 1.28 0 0 0 353.852 2.229 A 1.638 1.638 0 0 0 353.808 2.34 A 2.753 2.753 0 0 0 353.704 2.743 Q 353.621 3.185 353.599 3.845 A 14.829 14.829 0 0 0 353.592 4.32 L 353.592 22.176 Q 353.592 23.544 353.808 24.156 A 1.397 1.397 0 0 0 354.082 24.629 A 1.303 1.303 0 0 0 354.618 24.984 Q 355.212 25.2 356.508 25.272 L 356.508 25.992 Q 354.852 25.884 351.936 25.884 Q 348.868 25.884 347.355 25.99 A 21.359 21.359 0 0 0 347.328 25.992 L 347.328 25.272 Q 348.352 25.215 348.938 25.069 A 2.855 2.855 0 0 0 349.218 24.984 A 1.28 1.28 0 0 0 349.984 24.267 A 1.638 1.638 0 0 0 350.028 24.156 A 2.753 2.753 0 0 0 350.132 23.754 Q 350.216 23.311 350.237 22.651 A 14.829 14.829 0 0 0 350.244 22.176 L 350.244 4.32 Q 350.244 2.952 350.028 2.34 A 1.397 1.397 0 0 0 349.755 1.867 A 1.303 1.303 0 0 0 349.218 1.512 Q 348.624 1.296 347.328 1.224 L 347.328 0.504 Q 348.84 0.612 351.936 0.612 A 130.949 130.949 0 0 0 353.302 0.605 Q 354.785 0.59 355.877 0.539 A 37.413 37.413 0 0 0 356.508 0.504 Z M 177.043 3.908 A 14.151 14.151 0 0 0 174.024 3.6 A 13.357 13.357 0 0 0 172.943 3.643 A 10.909 10.909 0 0 0 168.3 5.058 Q 165.78 6.516 164.358 9.162 Q 162.936 11.808 162.936 15.264 Q 162.936 18.792 164.304 21.33 Q 165.672 23.868 168.174 25.182 A 11.036 11.036 0 0 0 170.97 26.188 A 14.151 14.151 0 0 0 173.988 26.496 A 13.357 13.357 0 0 0 175.069 26.453 A 10.909 10.909 0 0 0 179.712 25.038 Q 182.232 23.58 183.654 20.934 Q 185.076 18.288 185.076 14.832 Q 185.076 11.304 183.708 8.766 Q 182.34 6.228 179.838 4.914 A 11.036 11.036 0 0 0 177.043 3.908 Z M 283.927 3.908 A 14.151 14.151 0 0 0 280.908 3.6 A 13.357 13.357 0 0 0 279.827 3.643 A 10.909 10.909 0 0 0 275.184 5.058 Q 272.664 6.516 271.242 9.162 Q 269.82 11.808 269.82 15.264 Q 269.82 18.792 271.188 21.33 Q 272.556 23.868 275.058 25.182 A 11.036 11.036 0 0 0 277.854 26.188 A 14.151 14.151 0 0 0 280.872 26.496 A 13.357 13.357 0 0 0 281.953 26.453 A 10.909 10.909 0 0 0 286.596 25.038 Q 289.116 23.58 290.538 20.934 Q 291.96 18.288 291.96 14.832 Q 291.96 11.304 290.592 8.766 Q 289.224 6.228 286.722 4.914 A 11.036 11.036 0 0 0 283.927 3.908 Z M 112.14 4.104 L 112.14 4.824 Q 111.117 4.881 110.531 5.028 A 2.855 2.855 0 0 0 110.25 5.112 A 1.28 1.28 0 0 0 109.484 5.829 A 1.638 1.638 0 0 0 109.44 5.94 A 2.753 2.753 0 0 0 109.336 6.343 Q 109.253 6.785 109.231 7.445 A 14.829 14.829 0 0 0 109.224 7.92 L 109.224 22.176 Q 109.224 23.544 109.44 24.156 A 1.397 1.397 0 0 0 109.714 24.629 A 1.303 1.303 0 0 0 110.25 24.984 Q 110.844 25.2 112.14 25.272 L 112.14 25.992 Q 110.484 25.884 107.568 25.884 Q 104.5 25.884 102.987 25.99 A 21.359 21.359 0 0 0 102.96 25.992 L 102.96 25.272 Q 103.984 25.215 104.57 25.069 A 2.855 2.855 0 0 0 104.85 24.984 A 1.28 1.28 0 0 0 105.616 24.267 A 1.638 1.638 0 0 0 105.66 24.156 A 2.753 2.753 0 0 0 105.764 23.754 Q 105.848 23.311 105.869 22.651 A 14.829 14.829 0 0 0 105.876 22.176 L 105.876 7.92 Q 105.876 6.552 105.66 5.94 A 1.397 1.397 0 0 0 105.387 5.467 A 1.303 1.303 0 0 0 104.85 5.112 Q 104.256 4.896 102.96 4.824 L 102.96 4.104 A 29.948 29.948 0 0 0 103.815 4.151 Q 105.246 4.212 107.568 4.212 A 130.949 130.949 0 0 0 108.934 4.205 Q 110.417 4.19 111.509 4.139 A 37.413 37.413 0 0 0 112.14 4.104 Z M 173.88 4.248 Q 171.684 4.248 170.01 5.634 Q 168.336 7.02 167.436 9.486 Q 166.536 11.952 166.536 15.12 A 17.347 17.347 0 0 0 166.758 17.958 A 12.918 12.918 0 0 0 167.544 20.772 A 10.657 10.657 0 0 0 168.554 22.682 A 7.736 7.736 0 0 0 170.28 24.534 Q 172.008 25.848 174.132 25.848 Q 176.328 25.848 178.002 24.462 Q 179.676 23.076 180.576 20.61 Q 181.476 18.144 181.476 14.976 A 17.347 17.347 0 0 0 181.255 12.138 A 12.918 12.918 0 0 0 180.468 9.324 A 10.657 10.657 0 0 0 179.459 7.414 A 7.736 7.736 0 0 0 177.732 5.562 Q 176.004 4.248 173.88 4.248 Z M 280.764 4.248 Q 278.568 4.248 276.894 5.634 Q 275.22 7.02 274.32 9.486 Q 273.42 11.952 273.42 15.12 A 17.347 17.347 0 0 0 273.642 17.958 A 12.918 12.918 0 0 0 274.428 20.772 A 10.657 10.657 0 0 0 275.438 22.682 A 7.736 7.736 0 0 0 277.164 24.534 Q 278.892 25.848 281.016 25.848 Q 283.212 25.848 284.886 24.462 Q 286.56 23.076 287.46 20.61 Q 288.36 18.144 288.36 14.976 A 17.347 17.347 0 0 0 288.139 12.138 A 12.918 12.918 0 0 0 287.352 9.324 A 10.657 10.657 0 0 0 286.343 7.414 A 7.736 7.736 0 0 0 284.616 5.562 Q 282.888 4.248 280.764 4.248 Z M 325.116 7.92 L 325.116 16.416 L 327.168 16.416 Q 330.341 16.416 331.647 14.963 A 3.223 3.223 0 0 0 331.758 14.832 A 5.434 5.434 0 0 0 332.755 12.834 Q 332.966 12.069 333.019 11.166 A 10.613 10.613 0 0 0 333.036 10.548 A 11.067 11.067 0 0 0 332.934 8.989 Q 332.682 7.226 331.812 6.228 Q 330.863 5.139 328.959 4.895 A 9.283 9.283 0 0 0 327.78 4.824 Q 326.798 4.824 326.248 5.019 A 1.84 1.84 0 0 0 326.106 5.076 A 1.379 1.379 0 0 0 325.402 5.797 A 1.912 1.912 0 0 0 325.332 5.976 A 3.212 3.212 0 0 0 325.223 6.418 Q 325.14 6.877 325.122 7.53 A 13.795 13.795 0 0 0 325.116 7.92 Z M 253.368 7.92 L 253.368 15.156 L 255.78 15.156 Q 258.461 15.156 259.711 14.19 A 2.817 2.817 0 0 0 260.118 13.806 Q 261.104 12.669 261.259 10.726 A 9.472 9.472 0 0 0 261.288 9.972 A 8.124 8.124 0 0 0 261.166 8.515 Q 260.888 6.991 259.974 6.102 A 3.864 3.864 0 0 0 258.646 5.281 Q 257.458 4.824 255.672 4.824 Q 254.807 4.824 254.327 5.024 A 1.476 1.476 0 0 0 254.214 5.076 A 1.217 1.217 0 0 0 253.699 5.593 A 1.831 1.831 0 0 0 253.548 5.976 A 3.683 3.683 0 0 0 253.461 6.392 Q 253.368 6.989 253.368 7.92 Z M 411.531 22.551 A 2.21 2.21 0 0 0 409.932 21.888 A 2.232 2.232 0 0 0 409.11 22.039 A 2.327 2.327 0 0 0 408.312 22.572 A 2.803 2.803 0 0 0 408.291 22.594 A 2.21 2.21 0 0 0 407.628 24.192 A 2.232 2.232 0 0 0 407.779 25.015 A 2.327 2.327 0 0 0 408.312 25.812 A 2.803 2.803 0 0 0 408.334 25.833 A 2.21 2.21 0 0 0 409.932 26.496 A 2.232 2.232 0 0 0 410.755 26.346 A 2.327 2.327 0 0 0 411.552 25.812 A 2.803 2.803 0 0 0 411.573 25.791 A 2.21 2.21 0 0 0 412.236 24.192 A 2.232 2.232 0 0 0 412.086 23.37 A 2.327 2.327 0 0 0 411.552 22.572 A 2.803 2.803 0 0 0 411.531 22.551 Z" vector-effect="non-scaling-stroke"/></g></svg>